<svg width="24" height="24" viewBox="0 0 24 24" fill="none" xmlns="http://www.w3.org/2000/svg" xmlns:m="https://www.mapbox.com"><g clip-path="url(#clip0_1_2)"><rect width="24" height="24" fill="#12FF1A"/><line x1="-4.9741" y1="22.5" x2="28.967" y2="22.5" stroke="#fff"/><line x1="-4.9741" y1="22.5" x2="28.967" y2="22.5" stroke="#fff"/><line x1="-4.9741" y1="19.5" x2="28.967" y2="19.5" stroke="#fff"/><line x1="-4.9741" y1="19.5" x2="28.967" y2="19.5" stroke="#fff"/><line x1="-4.9741" y1="4.5" x2="28.967" y2="4.5" stroke="#fff"/><line x1="-4.9741" y1="4.5" x2="28.967" y2="4.5" stroke="#fff"/><line x1="-4.9741" y1="1.5" x2="28.967" y2="1.5" stroke="#fff"/><line x1="-4.9741" y1="1.5" x2="28.967" y2="1.5" stroke="#fff"/><line x1="-4.9741" y1="10.5" x2="28.967" y2="10.5" stroke="#fff"/><line x1="-4.9741" y1="10.5" x2="28.967" y2="10.5" stroke="#fff"/><line x1="-4.9741" y1="7.5" x2="28.967" y2="7.5" stroke="#fff"/><line x1="-4.9741" y1="7.5" x2="28.967" y2="7.5" stroke="#fff"/><line x1="-4.9741" y1="16.5" x2="28.967" y2="16.5" stroke="#fff"/><line x1="-4.9741" y1="16.5" x2="28.967" y2="16.5" stroke="#fff"/><line x1="-4.9741" y1="13.5" x2="28.967" y2="13.5" stroke="#fff"/><line x1="-4.9741" y1="13.5" x2="28.967" y2="13.5" stroke="#fff"/></g><defs><clipPath id="clip0_1_2"><rect width="24" height="24" fill="#fff"/></clipPath></defs><m:metadata><m:parameters><m:parameter m:name="color-1" m:type="color" m:value="#12FF1A"/><m:parameter m:name="color-2" m:type="color" m:value="#FFFFFF"/></m:parameters></m:metadata></svg>