<svg width="18" height="18" viewBox="0 0 18 18" fill="none" xmlns="http://www.w3.org/2000/svg">
<g clip-path="url(#clip0_4784_12791)">
<path fill-rule="evenodd" clip-rule="evenodd" d="M3.61987 14.3799C3.15571 13.9157 2.75771 13.3977 2.43195 12.8406L2.38998 12.7679C2.04958 12.1707 1.79149 11.5298 1.62305 10.8629L2.87863 10.138C2.81046 9.76907 2.77483 9.38865 2.77483 8.99994C2.77483 8.61122 2.81046 8.2308 2.87863 7.8618L1.62305 7.13691C1.79157 6.46971 2.04983 5.82854 2.39046 5.23112L2.43145 5.16013C2.7573 4.60269 3.15548 4.08443 3.61987 3.62003C3.64578 3.59412 3.67186 3.56842 3.6981 3.54293L4.95456 4.26835C5.52997 3.77594 6.19628 3.38665 6.92483 3.12915V1.67999C7.59405 1.49027 8.29181 1.3916 8.9998 1.3916C9.70779 1.3916 10.4056 1.49028 11.0748 1.68002V3.12915C11.8034 3.38667 12.4697 3.77596 13.0451 4.2684L14.3016 3.54301C14.3278 3.56848 14.3538 3.59415 14.3797 3.62003C15.3586 4.59891 16.0432 5.81706 16.3766 7.13702L15.121 7.86187C15.1892 8.23087 15.2248 8.61122 15.2248 8.99994C15.2248 9.38865 15.1892 9.769 15.121 10.138L16.3766 10.8629C16.0432 12.1828 15.3586 13.4009 14.3797 14.3799C14.3538 14.4057 14.3278 14.4314 14.3016 14.4568L13.0451 13.7315C12.4697 14.2239 11.8034 14.6132 11.0748 14.8707V16.3198C10.4056 16.5096 9.70779 16.6083 8.9998 16.6083C8.29181 16.6083 7.59405 16.5096 6.92483 16.3198V14.8707C6.19628 14.6132 5.52997 14.224 4.95456 13.7315L3.69809 14.4569C3.67185 14.4315 3.64578 14.4057 3.61987 14.3799Z" stroke="#1A1A1A" stroke-width="1.4"/>
<path d="M8.9998 11.0748C10.1458 11.0748 11.0748 10.1458 11.0748 8.9998C11.0748 7.85378 10.1458 6.9248 8.9998 6.9248C7.85378 6.9248 6.9248 7.85378 6.9248 8.9998C6.9248 10.1458 7.85378 11.0748 8.9998 11.0748Z" stroke="#1A1A1A" stroke-width="1.4"/>
</g>
<defs>
<clipPath id="clip0_4784_12791">
<rect width="18" height="18" fill="white"/>
</clipPath>
</defs>
</svg>
