<svg width="18" height="18" viewBox="0 0 18 18" fill="none" xmlns="http://www.w3.org/2000/svg">
<g clip-path="url(#clip0_40004051_5586)">
<path fill-rule="evenodd" clip-rule="evenodd" d="M3.61062 14.3895C3.14565 13.9245 2.74696 13.4057 2.42065 12.8476L2.37861 12.7748C2.03762 12.1766 1.77908 11.5346 1.61035 10.8665L2.8681 10.1404C2.79981 9.77079 2.76412 9.38972 2.76412 9.00033C2.76412 8.61095 2.79981 8.22988 2.8681 7.86024L1.61035 7.1341C1.77917 6.46576 2.03787 5.82348 2.37909 5.22503L2.42015 5.15392C2.74656 4.59552 3.14542 4.07637 3.61062 3.61117C3.63657 3.58522 3.66269 3.55947 3.68897 3.53394L4.9476 4.26061C5.524 3.76734 6.19145 3.37739 6.92126 3.11945V1.66779C7.59164 1.47774 8.29059 1.37891 8.9998 1.37891C9.70901 1.37891 10.408 1.47776 11.0784 1.66782V3.11945C11.8082 3.3774 12.4757 3.76736 13.0521 4.26065L14.3107 3.53402C14.3369 3.55953 14.363 3.58525 14.389 3.61117C15.3695 4.59173 16.0553 5.81199 16.3893 7.13421L15.1316 7.86031C15.1998 8.22995 15.2355 8.61095 15.2355 9.00033C15.2355 9.38972 15.1998 9.77072 15.1316 10.1404L16.3893 10.8665C16.0553 12.1887 15.3695 13.4089 14.389 14.3895C14.363 14.4154 14.3369 14.4411 14.3107 14.4666L13.0521 13.74C12.4757 14.2333 11.8082 14.6233 11.0784 14.8812V16.3328C10.408 16.5229 9.70901 16.6218 8.9998 16.6218C8.29059 16.6218 7.59164 16.5229 6.92126 16.3328V14.8812C6.19145 14.6233 5.524 14.2333 4.94759 13.74L3.68896 14.4667C3.66268 14.4412 3.63657 14.4154 3.61062 14.3895Z" stroke="white" stroke-width="1.6"/>
<path d="M8.99996 11.079C10.148 11.079 11.0785 10.1484 11.0785 9.00045C11.0785 7.85245 10.148 6.92188 8.99996 6.92188C7.85196 6.92188 6.92139 7.85245 6.92139 9.00045C6.92139 10.1484 7.85196 11.079 8.99996 11.079Z" stroke="white" stroke-width="1.6"/>
</g>
<defs>
<clipPath id="clip0_40004051_5586">
<rect width="18" height="18" fill="white"/>
</clipPath>
</defs>
</svg>
